# xmcd
#
# Track frame offsets:
#	150
#	15525
#	35682
#	55410
#	78710
#	93340
#	104167
#	136055
#	151920
#	168465
#	186920
#	210045
#	225000
#	242155
#	268935
#
# Disc length: 4128 seconds
#
# Revision: 0
# Processed by: cddbd v1.4PL0 Copyright (c) Steve Scherf et al.
# Submitted via: audiograbber 1.80
#
DISCID=c1101e0f
DTITLE=Bluesaholics - X [CD 2) Live At Fricks Monti
DYEAR=1900
DGENRE=
TTITLE0=Cry Out The Blues
TTITLE1=Hard To Be
TTITLE2=King Of The Blues
TTITLE3=Förigi Flöckli
TTITLE4=Get Back
TTITLE5=She Loves My Automobile
TTITLE6=Need Your Love So Bad
TTITLE7=Boiled Rabbit
TTITLE8=I Feel Lucky
TTITLE9=Can't Get You
TTITLE10=You Move Everyday
TTITLE11=Juniors Wailing
TTITLE12=Standing At The Crossroad
TTITLE13=Will The Circle
TTITLE14=Crawling In The City
EXTD=
EXTT0=
EXTT1=
EXTT2=
EXTT3=
EXTT4=
EXTT5=
EXTT6=
EXTT7=
EXTT8=
EXTT9=
EXTT10=
EXTT11=
EXTT12=
EXTT13=
EXTT14=
PLAYORDER=
